<svg width="200" height="200" viewBox="0 0 200 200" fill="none" xmlns="http://www.w3.org/2000/svg">
<path fill-rule="evenodd" clip-rule="evenodd" d="M81.6325 172.789C66.6043 187.817 42.2389 187.817 27.2107 172.789C12.1826 157.761 12.1826 133.396 27.2108 118.367L118.367 27.2109C133.395 12.1827 157.761 12.1827 172.789 27.2109C187.817 42.239 187.817 66.6045 172.789 81.6327L81.6325 172.789Z" fill="url(#paint0_linear_1_118)"/>
<rect x="184.246" y="16.021" width="76.9027" height="168.225" rx="38.4513" transform="rotate(90 184.246 16.021)" fill="url(#paint1_linear_1_118)"/>
<rect x="16.0211" y="16.021" width="76.9027" height="168.225" rx="38.4513" fill="url(#paint2_linear_1_118)"/>
<circle cx="145.795" cy="54.4723" r="38.4513" fill="black"/>
<circle cx="54.4725" cy="145.795" r="38.4513" fill="black"/>
<circle cx="54.4725" cy="54.4723" r="38.4513" fill="black"/>
<defs>
<linearGradient id="paint0_linear_1_118" x1="54.4216" y1="200" x2="200" y2="54.4218" gradientUnits="userSpaceOnUse">
<stop stop-color="white" stop-opacity="0.01"/>
<stop offset="1"/>
</linearGradient>
<linearGradient id="paint1_linear_1_118" x1="184.246" y1="16.021" x2="184.246" y2="184.246" gradientUnits="userSpaceOnUse">
<stop stop-color="white" stop-opacity="0.01"/>
<stop offset="1" stop-opacity="0.75"/>
</linearGradient>
<linearGradient id="paint2_linear_1_118" x1="16.0211" y1="16.021" x2="16.0211" y2="184.246" gradientUnits="userSpaceOnUse">
<stop stop-color="white" stop-opacity="0.01"/>
<stop offset="1" stop-opacity="0.75"/>
</linearGradient>
</defs>
</svg>
